<?xml version="1.0" encoding="UTF-8" standalone="no"?>
<!DOCTYPE svg PUBLIC "-//W3C//DTD SVG 1.1//EN" "http://www.w3.org/Graphics/SVG/1.1/DTD/svg11.dtd">
<svg width="100%" height="100%" viewBox="0 0 1080 1080" version="1.1" xmlns="http://www.w3.org/2000/svg" xmlns:xlink="http://www.w3.org/1999/xlink" xml:space="preserve" style="fill-rule:evenodd;clip-rule:evenodd;stroke-linejoin:round;stroke-miterlimit:2;">
  <style type="text/css">path{fill:#1c1917;}@media (prefers-color-scheme:dark){path{fill:#f5f5f4;}}</style>
  <path d="M166.018,989.316C164.224,987.523 163.328,983.487 163.328,977.209C163.328,972.725 164.449,965.999 166.691,957.03C168.933,948.062 171.399,943.578 174.09,943.578C180.367,943.578 189.112,941.784 200.322,938.197C211.533,934.609 222.519,930.349 233.281,925.417C244.043,920.484 250.769,915.327 253.46,909.946C263.325,892.009 274.536,852.548 287.091,791.563L385.295,283.056C396.057,226.555 400.542,191.578 398.748,178.125C398.748,172.744 394.039,167.139 384.623,161.31C375.206,155.48 365.116,150.323 354.354,145.839C343.592,141.355 335.521,139.113 330.14,139.113C328.346,139.113 327.449,135.974 327.449,129.696C327.449,111.759 330.588,99.652 336.866,93.374C408.613,96.065 467.356,97.41 513.095,97.41C534.619,97.41 563.318,96.961 599.191,96.065C635.065,95.168 673.629,94.495 714.884,94.047C756.138,93.598 794.702,92.926 830.576,92.029C866.449,91.132 895.148,90.684 916.672,90.684C915.776,104.136 915.103,120.952 914.655,141.131C914.206,161.31 913.982,185.3 913.982,213.102L913.982,289.782C909.498,294.266 899.633,296.508 884.386,296.508C874.521,296.508 869.14,293.369 868.243,287.091C858.378,253.011 838.872,223.864 809.724,199.65C780.577,175.435 749.86,163.328 717.574,163.328L670.49,163.328C656.141,163.328 639.773,163.776 621.388,164.673C603.003,165.57 591.12,170.951 585.739,180.816C578.564,195.165 573.407,211.084 570.268,228.573C567.129,246.061 563.318,265.119 558.834,285.746L518.476,492.916C518.476,493.813 525.202,495.382 538.655,497.624C552.107,499.866 562.869,500.987 570.941,500.987L677.216,500.987C697.844,500.987 711.296,496.952 717.574,488.88C725.646,480.809 738.201,457.042 755.241,417.581C757.932,411.304 765.107,408.165 776.766,408.165C791.115,408.165 799.635,410.407 802.325,414.891L753.896,669.145C750.309,672.732 740.892,674.526 725.646,674.526C715.78,674.526 709.951,670.939 708.157,663.764C707.261,624.303 702.328,600.088 693.359,591.12C682.597,580.358 648.966,574.977 592.465,574.977C532.377,574.977 501.436,579.013 499.642,587.084L460.63,794.254C452.558,834.612 448.522,864.656 448.522,884.386C448.522,901.426 455.697,914.206 470.047,922.726C484.396,931.246 500.539,936.851 518.476,939.542C536.413,942.232 550.314,943.578 560.179,943.578C563.766,943.578 564.215,950.752 561.524,965.102C558.834,976.761 556.592,984.832 554.798,989.316C496.503,985.729 449.419,983.263 413.546,981.918C377.672,980.572 353.457,979.9 340.902,979.9C325.655,979.9 307.27,980.572 285.746,981.918C264.222,983.263 242.698,984.608 221.174,985.953C199.65,987.299 181.264,988.42 166.018,989.316Z" style="fill-rule:nonzero;"/>
</svg>
